<mxfile host="app.diagrams.net" modified="2022-03-15T06:10:44.018Z" agent="5.0 (Windows NT 10.0; Win64; x64) AppleWebKit/537.36 (KHTML, like Gecko) Chrome/99.0.4844.51 Safari/537.36" etag="7AZX-EHioQDf1U4IFcEM" version="17.1.1" type="github">
  <diagram id="inejEvUsxbzrYnm4ZTXX" name="Page-1">
    <mxGraphModel dx="1360" dy="802" grid="0" gridSize="10" guides="1" tooltips="1" connect="1" arrows="1" fold="1" page="1" pageScale="1" pageWidth="827" pageHeight="1169" math="0" shadow="0">
      <root>
        <mxCell id="0" />
        <mxCell id="1" parent="0" />
        <mxCell id="fBae6MaYPsHn7tR7aAF2-9" style="edgeStyle=orthogonalEdgeStyle;rounded=0;orthogonalLoop=1;jettySize=auto;html=1;" edge="1" parent="1" source="fBae6MaYPsHn7tR7aAF2-1" target="fBae6MaYPsHn7tR7aAF2-3">
          <mxGeometry relative="1" as="geometry" />
        </mxCell>
        <mxCell id="fBae6MaYPsHn7tR7aAF2-1" value="imweb" style="rounded=0;whiteSpace=wrap;html=1;" vertex="1" parent="1">
          <mxGeometry x="89" y="601" width="120" height="60" as="geometry" />
        </mxCell>
        <mxCell id="fBae6MaYPsHn7tR7aAF2-10" style="edgeStyle=orthogonalEdgeStyle;rounded=0;orthogonalLoop=1;jettySize=auto;html=1;" edge="1" parent="1" source="fBae6MaYPsHn7tR7aAF2-2" target="fBae6MaYPsHn7tR7aAF2-1">
          <mxGeometry relative="1" as="geometry" />
        </mxCell>
        <mxCell id="fBae6MaYPsHn7tR7aAF2-2" value="&lt;font style=&quot;vertical-align: inherit&quot;&gt;&lt;font style=&quot;vertical-align: inherit&quot;&gt;&lt;font style=&quot;vertical-align: inherit&quot;&gt;&lt;font style=&quot;vertical-align: inherit&quot;&gt;&lt;font style=&quot;vertical-align: inherit&quot;&gt;&lt;font style=&quot;vertical-align: inherit&quot;&gt;&lt;b&gt;&lt;font style=&quot;vertical-align: inherit&quot;&gt;&lt;font style=&quot;vertical-align: inherit&quot;&gt;&lt;font style=&quot;vertical-align: inherit&quot;&gt;&lt;font style=&quot;vertical-align: inherit&quot;&gt;客户端调用：&lt;/font&gt;&lt;/font&gt;&lt;/font&gt;&lt;/font&gt;&lt;/b&gt;&lt;/font&gt;&lt;/font&gt;&lt;br&gt;&lt;div&gt;&lt;div&gt;我的信息&lt;/div&gt;&lt;div&gt;/unify/login/my/info&lt;/div&gt;&lt;div&gt;我的头像&lt;/div&gt;&lt;div&gt;/unify/login/avatar&lt;/div&gt;&lt;div&gt;用户和机器人信息（批量）&lt;/div&gt;&lt;div&gt;/unify/login/user/infos 机器人列表&lt;/div&gt;&lt;div&gt;/msgers&lt;/div&gt;&lt;div&gt;联系人列表&lt;/div&gt;&lt;div&gt;/business/card&lt;/div&gt;&lt;div&gt;应用列表（广场、工作台）&lt;/div&gt;&lt;div&gt;/apps&lt;/div&gt;&lt;div&gt;管理我的应用&lt;/div&gt;&lt;div&gt;/my/apps&lt;/div&gt;&lt;div&gt;小应用详情&lt;/div&gt;&lt;div&gt;/apps/details&lt;/div&gt;&lt;div&gt;小助手详情&lt;/div&gt;&lt;div&gt;/apps/details/by/msger&lt;/div&gt;&lt;/div&gt;&lt;/font&gt;&lt;/font&gt;&lt;/font&gt;&lt;/font&gt;" style="rounded=0;whiteSpace=wrap;html=1;align=left;fillColor=#dae8fc;strokeColor=#6c8ebf;" vertex="1" parent="1">
          <mxGeometry x="66" y="767" width="166" height="279" as="geometry" />
        </mxCell>
        <mxCell id="fBae6MaYPsHn7tR7aAF2-3" value="open-api" style="rounded=0;whiteSpace=wrap;html=1;" vertex="1" parent="1">
          <mxGeometry x="289" y="601" width="120" height="60" as="geometry" />
        </mxCell>
        <mxCell id="fBae6MaYPsHn7tR7aAF2-4" value="open-api-db" style="shape=cylinder3;whiteSpace=wrap;html=1;boundedLbl=1;backgroundOutline=1;size=15;" vertex="1" parent="1">
          <mxGeometry x="314" y="767" width="70" height="80" as="geometry" />
        </mxCell>
        <mxCell id="fBae6MaYPsHn7tR7aAF2-6" value="&lt;font style=&quot;vertical-align: inherit&quot;&gt;&lt;font style=&quot;vertical-align: inherit&quot;&gt;小应用后台管理&lt;/font&gt;&lt;/font&gt;" style="ellipse;whiteSpace=wrap;html=1;" vertex="1" parent="1">
          <mxGeometry x="501" y="591" width="120" height="80" as="geometry" />
        </mxCell>
        <mxCell id="fBae6MaYPsHn7tR7aAF2-7" value="" style="endArrow=classic;startArrow=classic;html=1;rounded=0;" edge="1" parent="1" source="fBae6MaYPsHn7tR7aAF2-4">
          <mxGeometry width="50" height="50" relative="1" as="geometry">
            <mxPoint x="298" y="709" as="sourcePoint" />
            <mxPoint x="348" y="659" as="targetPoint" />
          </mxGeometry>
        </mxCell>
        <mxCell id="fBae6MaYPsHn7tR7aAF2-8" value="" style="endArrow=classic;startArrow=classic;html=1;rounded=0;entryX=0;entryY=0.5;entryDx=0;entryDy=0;" edge="1" parent="1" source="fBae6MaYPsHn7tR7aAF2-3" target="fBae6MaYPsHn7tR7aAF2-6">
          <mxGeometry width="50" height="50" relative="1" as="geometry">
            <mxPoint x="396" y="877" as="sourcePoint" />
            <mxPoint x="446" y="827" as="targetPoint" />
          </mxGeometry>
        </mxCell>
      </root>
    </mxGraphModel>
  </diagram>
</mxfile>
